PathFileType	4	(X/Y/Z)	c:/Users/goper/Files/vsCode/490R/osim_files/C11/C11_SSWS_05.trc
DataRate	CameraRate	NumFrames	NumMarkers	Units                	OrigDataRate	OrigDataStartFrame	OrigNumFrames
120.00	120.00	10	36	mm	120.0	1196	1366
                Frame#	Time	LPSI			LASI			LTH1			LTH2			LTH3			LTH4			LLFE			LMFE			LSH1			LSH2			LSH3			LSH4			LLMA			LMMA			LCAL			LMTP			LTOE			LMTP			RPSI			RASI			RTH1			RTH2			RTH3			RTH4			RLFE			RMFE			RSH1			RSH2			RSH3			RSH4			RLMA			RMMA			RCAL			RMTP			RTOE			RMTP		
		X1	Y1	Z1	X2	Y2	Z2	X3	Y3	Z3	X4	Y4	Z4	X5	Y5	Z5	X6	Y6	Z6	X7	Y7	Z7	X8	Y8	Z8	X9	Y9	Z9	X10	Y10	Z10	X11	Y11	Z11	X12	Y12	Z12	X13	Y13	Z13	X14	Y14	Z14	X15	Y15	Z15	X16	Y16	Z16	X17	Y17	Z17	X18	Y18	Z18	X19	Y19	Z19	X20	Y20	Z20	X21	Y21	Z21	X22	Y22	Z22	X23	Y23	Z23	X24	Y24	Z24	X25	Y25	Z25	X26	Y26	Z26	X27	Y27	Z27	X28	Y28	Z28	X29	Y29	Z29	X30	Y30	Z30	X31	Y31	Z31	X32	Y32	Z32	X33	Y33	Z33	X34	Y34	Z34	X35	Y35	Z35	X36	Y36	Z36

1196	9.95833	0.00000	0.00000	0.00000	-4831.47119	1007.74249	176.69122	-4922.50244	624.87231	251.25519	-4930.21289	578.72681	243.23769	-4931.04834	631.08936	192.18327	-4938.44043	589.13318	195.61621	0.00000	0.00000	0.00000	-4944.91748	520.65582	199.65141	-4993.28564	437.45770	247.40396	-5021.48047	408.72324	256.21774	-4978.68408	418.78979	192.52750	0.00000	0.00000	0.00000	0.00000	0.00000	0.00000	0.00000	0.00000	0.00000	0.00000	0.00000	0.00000	0.00000	0.00000	0.00000	-1206.55334	734.87402	2771.07422	0.00000	0.00000	0.00000	-4669.00635	1036.28491	340.21686	0.00000	0.00000	0.00000	-4571.68750	647.70746	181.18892	-4585.25635	605.59601	178.63338	0.00000	0.00000	0.00000	-4619.49414	612.32898	138.68710	0.00000	0.00000	0.00000	-4622.55225	528.80176	157.02736	-1196.55981	735.67871	2720.93237	0.00000	0.00000	0.00000	-1135.20361	734.43848	2742.00415	-1148.69702	737.25684	2784.85498	0.00000	0.00000	0.00000	-4604.42334	119.81034	290.10635	-4506.54883	78.60577	279.40936	0.00000	0.00000	0.00000	0.00000	0.00000	0.00000	-4639.14307	54.27223	130.82677
1197	9.96667	0.00000	0.00000	0.00000	-4835.78809	1007.12115	175.97220	-4924.25098	623.37268	253.85031	-4931.64795	577.12219	245.98610	-4933.25293	629.33862	194.79788	-4940.35889	587.43414	198.40849	0.00000	0.00000	0.00000	-4946.26709	518.70044	202.83917	-4993.28125	434.61722	251.24733	-5021.06934	405.78464	259.92108	-4979.01318	416.34274	196.04718	0.00000	0.00000	0.00000	0.00000	0.00000	0.00000	0.00000	0.00000	0.00000	-4682.84229	507.97574	258.55203	0.00000	0.00000	0.00000	-1206.54688	734.87976	2771.07373	0.00000	0.00000	0.00000	-4675.99316	1036.40942	341.81888	0.00000	0.00000	0.00000	-4576.76514	648.87463	184.63399	-4588.30908	605.92535	180.37915	0.00000	0.00000	0.00000	-4622.11816	612.67249	139.87094	0.00000	0.00000	0.00000	-4625.31982	529.31873	157.80104	-1196.49390	735.70874	2720.92456	0.00000	0.00000	0.00000	-1135.11511	734.46887	2741.98413	-1148.70349	737.27063	2784.86816	0.00000	0.00000	0.00000	-4605.72314	120.06366	290.32123	-4507.69189	79.25797	280.56754	0.00000	0.00000	0.00000	0.00000	0.00000	0.00000	-4638.85547	54.32436	130.89742
1198	9.97500	0.00000	0.00000	0.00000	-4840.23047	1006.40369	175.55675	-4926.17822	622.05096	256.60303	-4933.27441	575.72125	248.96376	-4935.50977	626.97412	197.27364	-4942.27637	585.86591	201.36766	0.00000	0.00000	0.00000	-4947.79492	516.88123	206.34976	-4993.38477	431.72870	255.40625	-5020.76904	402.82663	263.98898	-4979.67773	414.04266	199.92674	0.00000	0.00000	0.00000	0.00000	0.00000	0.00000	0.00000	0.00000	0.00000	0.00000	0.00000	0.00000	0.00000	0.00000	0.00000	-1206.43970	734.92267	2771.04150	0.00000	0.00000	0.00000	-4682.84668	1036.57800	343.41766	0.00000	0.00000	0.00000	-4578.39209	648.58887	185.20311	-4591.48975	606.36096	182.01308	0.00000	0.00000	0.00000	-4624.72949	613.09613	141.06914	0.00000	0.00000	0.00000	-4627.99902	529.71387	158.68631	-1196.40137	735.75928	2720.87817	0.00000	0.00000	0.00000	-1135.11536	734.48883	2741.97827	-1148.64148	737.29047	2784.84741	0.00000	0.00000	0.00000	-4607.57080	120.42223	290.65909	-4509.31250	79.81512	282.26700	0.00000	0.00000	0.00000	0.00000	0.00000	0.00000	-4638.39990	54.32021	130.92859
1199	9.98333	0.00000	0.00000	0.00000	-4844.78418	1005.58514	175.38228	-4928.32959	620.91534	259.47226	-4935.09082	574.52173	251.99809	-4938.54053	626.17987	201.11923	-4944.27979	584.48798	204.42789	0.00000	0.00000	0.00000	-4949.60303	515.26825	209.94659	-4993.89404	429.06894	259.55353	-5020.81641	400.12192	267.95667	-4980.70312	411.92859	203.73679	0.00000	0.00000	0.00000	0.00000	0.00000	0.00000	0.00000	0.00000	0.00000	-4690.40527	507.64557	258.43542	0.00000	0.00000	0.00000	-1206.51526	734.93390	2771.04419	0.00000	0.00000	0.00000	-4693.52783	1039.50500	348.53644	0.00000	0.00000	0.00000	-4583.45459	649.70190	188.44836	-4594.60303	606.74139	183.64413	0.00000	0.00000	0.00000	-4627.49170	613.38629	142.32335	0.00000	0.00000	0.00000	-4630.63135	530.11768	159.50639	-1196.46863	735.76923	2720.87842	0.00000	0.00000	0.00000	-1135.13806	734.50726	2741.97949	-1148.62732	737.33209	2784.80396	0.00000	0.00000	0.00000	-4610.12939	120.78294	291.09598	-4511.63281	80.19445	284.83185	0.00000	0.00000	0.00000	0.00000	0.00000	0.00000	-4635.94678	53.88574	129.87846
1200	9.99167	0.00000	0.00000	0.00000	-4849.35303	1004.64893	175.53001	-4930.70898	620.12128	262.20142	-4937.24561	573.66974	254.85197	-4940.00488	624.94574	202.90576	-4946.43506	583.48792	207.29654	0.00000	0.00000	0.00000	-4951.82861	514.20258	213.18219	0.00000	0.00000	0.00000	-5021.60254	397.95358	271.31128	-4999.51367	421.07187	201.74130	-5007.83057	381.15698	221.92857	0.00000	0.00000	0.00000	0.00000	0.00000	0.00000	0.00000	0.00000	0.00000	0.00000	0.00000	0.00000	-1206.56860	734.91205	2771.05078	0.00000	0.00000	0.00000	-4695.88721	1036.91479	346.92657	-4614.83936	1006.64307	185.56296	-4584.97949	649.39471	189.19522	-4597.53271	607.03998	185.37860	0.00000	0.00000	0.00000	-4630.09814	613.80029	143.57663	0.00000	0.00000	0.00000	-4633.02588	530.37738	160.60492	-1196.54065	735.73096	2720.89893	0.00000	0.00000	0.00000	-1135.19055	734.49445	2741.97778	-1148.73804	737.29065	2784.82886	0.00000	0.00000	0.00000	-4613.70947	121.36837	291.89673	-4514.90137	80.70591	288.24741	0.00000	0.00000	0.00000	0.00000	0.00000	0.00000	-4634.81787	53.86264	129.96924
1201	10.00000	0.00000	0.00000	0.00000	-4853.84033	1003.76898	175.92809	-4933.47070	619.81525	264.40579	-4939.89062	573.36829	257.09756	-4947.42773	629.50854	212.11411	-4948.83936	583.19000	209.50877	0.00000	0.00000	0.00000	-4954.49658	513.80444	215.48236	0.00000	0.00000	0.00000	-5023.48682	396.63889	273.32449	-5002.48438	423.37167	201.37595	-5010.06885	380.33389	223.67989	0.00000	0.00000	0.00000	0.00000	0.00000	0.00000	-4698.18848	507.44427	258.49698	0.00000	0.00000	0.00000	-1206.58740	734.90771	2771.05273	0.00000	0.00000	0.00000	-4705.50830	1039.65344	352.02710	0.00000	0.00000	0.00000	-4588.10742	649.67761	191.45352	-4598.50684	606.70068	185.65637	0.00000	0.00000	0.00000	-4632.39258	614.00800	145.08788	0.00000	0.00000	0.00000	-4635.29102	530.64734	161.81926	-1196.58350	735.72131	2720.92651	0.00000	0.00000	0.00000	-1135.25073	734.47125	2741.99902	-1148.73572	737.30865	2784.84106	0.00000	0.00000	0.00000	-4618.13330	121.91306	292.97171	-4518.97021	81.17458	292.56296	0.00000	0.00000	0.00000	0.00000	0.00000	0.00000	-4633.42285	53.88941	130.38882
1202	10.00833	0.00000	0.00000	0.00000	-4858.10742	1003.02820	176.51709	-4936.80322	620.10992	265.68539	-4943.26074	573.65167	258.18448	-4950.29590	629.92596	213.34308	-4951.76855	583.61096	210.63017	0.00000	0.00000	0.00000	-4957.63525	514.06738	216.47025	0.00000	0.00000	0.00000	-5026.77783	396.40561	273.65344	0.00000	0.00000	0.00000	-5013.16992	380.37567	223.97688	0.00000	0.00000	0.00000	0.00000	0.00000	0.00000	-4702.35742	507.42688	258.61642	0.00000	0.00000	0.00000	-1206.59326	734.88818	2771.07007	0.00000	0.00000	0.00000	-4707.40869	1037.43567	350.84018	0.00000	0.00000	0.00000	-4592.46826	650.65857	195.21661	-4603.01807	607.52704	189.46304	0.00000	0.00000	0.00000	-4634.47412	614.24542	146.86189	0.00000	0.00000	0.00000	-4637.36035	530.91870	163.56340	-1196.52112	735.74487	2720.91113	0.00000	0.00000	0.00000	-1135.19055	734.46649	2741.97705	-1148.72302	737.27448	2784.85791	0.00000	0.00000	0.00000	-4623.13672	122.24699	294.16098	-4523.83154	81.81780	297.39093	0.00000	0.00000	0.00000	0.00000	0.00000	0.00000	-4632.10889	54.04862	131.05301
1203	10.01667	0.00000	0.00000	0.00000	-4862.13135	1002.43994	177.16258	-4940.99414	620.90955	265.87210	-4947.54834	574.49066	258.17499	-4953.74756	630.96936	213.49866	-4955.41895	584.64734	210.59311	0.00000	0.00000	0.00000	-4961.20361	514.70593	216.49721	0.00000	0.00000	0.00000	-5031.19580	396.86380	272.75250	0.00000	0.00000	0.00000	-5016.70117	380.81509	223.28300	0.00000	0.00000	0.00000	0.00000	0.00000	0.00000	-4706.69873	507.49945	258.92422	0.00000	0.00000	0.00000	-1206.49048	734.94293	2771.05786	0.00000	0.00000	0.00000	-4712.72852	1037.89417	352.94247	0.00000	0.00000	0.00000	-4595.04492	650.87262	198.21550	-4605.47949	607.74677	192.05721	0.00000	0.00000	0.00000	-4636.33496	614.45886	149.04060	0.00000	0.00000	0.00000	-4639.30615	531.18066	165.75833	-1196.41150	735.77509	2720.88379	0.00000	0.00000	0.00000	-1135.13562	734.50659	2741.97583	-1148.64722	737.32471	2784.81885	0.00000	0.00000	0.00000	-4628.40869	122.22615	295.20932	-4526.11133	81.46964	299.14752	0.00000	0.00000	0.00000	0.00000	0.00000	0.00000	-4630.73682	54.25699	132.04474
1204	10.02500	0.00000	0.00000	0.00000	-4865.82227	1001.93097	177.80939	-4945.99658	621.96631	265.31927	-4952.56006	575.64539	257.34781	-4957.82812	632.31488	212.91988	-4959.62256	586.00519	209.79106	0.00000	0.00000	0.00000	-4965.10205	515.27246	216.20869	0.00000	0.00000	0.00000	-5035.83740	397.29010	271.42291	0.00000	0.00000	0.00000	-5020.17627	381.11804	222.33493	0.00000	0.00000	0.00000	0.00000	0.00000	0.00000	-4711.22607	507.71448	259.38818	0.00000	0.00000	0.00000	-1206.46484	734.90637	2771.02393	0.00000	0.00000	0.00000	-4717.79053	1038.36401	355.09296	0.00000	0.00000	0.00000	-4597.58887	650.99091	201.64191	-4607.77441	607.84497	195.15900	0.00000	0.00000	0.00000	-4640.14453	615.09003	153.41042	0.00000	0.00000	0.00000	-4641.25244	531.53693	168.35136	-1196.40552	735.74835	2720.89111	0.00000	0.00000	0.00000	-1135.05847	734.50330	2741.95654	-1148.58398	737.33289	2784.79541	0.00000	0.00000	0.00000	-4634.00000	122.15054	296.30688	-4532.03760	81.78461	304.40897	0.00000	0.00000	0.00000	0.00000	0.00000	0.00000	-4631.10303	55.51185	133.78265
1205	10.03333	0.00000	0.00000	0.00000	-4869.32422	1001.57416	178.31387	-4951.53369	623.14954	264.55185	-4957.97266	576.87512	256.35388	-4962.31689	633.76318	212.13223	-4964.11768	587.39569	208.80151	0.00000	0.00000	0.00000	-4969.21240	515.68610	216.14287	0.00000	0.00000	0.00000	-5040.08691	397.39868	270.41431	0.00000	0.00000	0.00000	-5023.41602	381.25458	221.59334	0.00000	0.00000	0.00000	0.00000	0.00000	0.00000	-4715.69971	508.02039	259.98981	0.00000	0.00000	0.00000	-1206.49890	734.87970	2771.05151	0.00000	0.00000	0.00000	-4725.88525	1041.05640	359.98447	0.00000	0.00000	0.00000	-4600.03857	651.13916	205.54552	-4610.02637	607.89172	198.65460	0.00000	0.00000	0.00000	-4641.67041	615.26123	156.40187	0.00000	0.00000	0.00000	-4643.08545	531.75452	171.06276	-1196.43372	735.71741	2720.87207	0.00000	0.00000	0.00000	-1135.08508	734.48566	2741.95630	-1148.63342	737.28766	2784.80518	0.00000	0.00000	0.00000	-4639.77100	122.00554	297.35577	-4541.39893	83.04131	313.09058	0.00000	0.00000	0.00000	-5055.09961	475.65076	213.57787	0.00000	0.00000	0.00000
